  0
SECTION
  2
HEADER
  9
$ACADVER
  1
AC1009
  9
$EXTMIN
 10
0.0
 20
0.0
 30
0.0
  9
$EXTMAX
 10
1000.0
 20
1000.0
 30
0.0
  9
$FILLMODE
 70
 0
  9
$SPLFRAME
 70
 1
  0
ENDSEC
  0
SECTION
  2
TABLES
  0
TABLE
  2
LAYER
 70
1
  0
LAYER
  2
0
 70
     0
 62
     7
  6
CONTINUOUS
  0
ENDTAB
  0
ENDSEC
  0
SECTION
  2
ENTITIES
  0
LINE
  8
0
 62
     0
 10
350.522
 20
129.021
 30
0.0
 11
350.678
 21
129.015
 31
0.0
  0
LINE
  8
0
 62
     0
 10
350.678
 20
129.015
 30
0.0
 11
350.833
 21
128.997
 31
0.0
  0
LINE
  8
0
 62
     0
 10
350.833
 20
128.997
 30
0.0
 11
350.988
 21
128.966
 31
0.0
  0
LINE
  8
0
 62
     0
 10
350.988
 20
128.966
 30
0.0
 11
351.139
 21
128.924
 31
0.0
  0
LINE
  8
0
 62
     0
 10
351.139
 20
128.924
 30
0.0
 11
351.287
 21
128.869
 31
0.0
  0
LINE
  8
0
 62
     0
 10
351.287
 20
128.869
 30
0.0
 11
351.429
 21
128.804
 31
0.0
  0
LINE
  8
0
 62
     0
 10
351.429
 20
128.804
 30
0.0
 11
351.565
 21
128.727
 31
0.0
  0
LINE
  8
0
 62
     0
 10
351.565
 20
128.727
 30
0.0
 11
351.696
 21
128.64
 31
0.0
  0
LINE
  8
0
 62
     0
 10
351.696
 20
128.64
 30
0.0
 11
351.82
 21
128.542
 31
0.0
  0
LINE
  8
0
 62
     0
 10
351.82
 20
128.542
 30
0.0
 11
351.936
 21
128.436
 31
0.0
  0
LINE
  8
0
 62
     0
 10
351.936
 20
128.436
 30
0.0
 11
352.042
 21
128.32
 31
0.0
  0
LINE
  8
0
 62
     0
 10
352.042
 20
128.32
 30
0.0
 11
352.14
 21
128.198
 31
0.0
  0
LINE
  8
0
 62
     0
 10
352.14
 20
128.198
 30
0.0
 11
352.227
 21
128.066
 31
0.0
  0
LINE
  8
0
 62
     0
 10
352.227
 20
128.066
 30
0.0
 11
352.304
 21
127.929
 31
0.0
  0
LINE
  8
0
 62
     0
 10
352.304
 20
127.929
 30
0.0
 11
352.369
 21
127.787
 31
0.0
  0
LINE
  8
0
 62
     0
 10
352.369
 20
127.787
 30
0.0
 11
352.424
 21
127.641
 31
0.0
  0
LINE
  8
0
 62
     0
 10
352.424
 20
127.641
 30
0.0
 11
352.465
 21
127.488
 31
0.0
  0
LINE
  8
0
 62
     0
 10
352.465
 20
127.488
 30
0.0
 11
352.497
 21
127.335
 31
0.0
  0
LINE
  8
0
 62
     0
 10
352.497
 20
127.335
 30
0.0
 11
352.515
 21
127.178
 31
0.0
  0
LINE
  8
0
 62
     0
 10
352.515
 20
127.178
 30
0.0
 11
352.521
 21
127.021
 31
0.0
  0
LINE
  8
0
 62
     0
 10
352.521
 20
127.021
 30
0.0
 11
352.521
 21
2.43362
 31
0.0
  0
LINE
  8
0
 62
     0
 10
352.521
 20
2.43362
 30
0.0
 11
352.515
 21
2.27652
 31
0.0
  0
LINE
  8
0
 62
     0
 10
352.515
 20
2.27652
 30
0.0
 11
352.497
 21
2.1208
 31
0.0
  0
LINE
  8
0
 62
     0
 10
352.497
 20
2.1208
 30
0.0
 11
352.465
 21
1.96646
 31
0.0
  0
LINE
  8
0
 62
     0
 10
352.465
 20
1.96646
 30
0.0
 11
352.424
 21
1.81488
 31
0.0
  0
LINE
  8
0
 62
     0
 10
352.424
 20
1.81488
 30
0.0
 11
352.369
 21
1.6688
 31
0.0
  0
LINE
  8
0
 62
     0
 10
352.369
 20
1.6688
 30
0.0
 11
352.304
 21
1.52549
 31
0.0
  0
LINE
  8
0
 62
     0
 10
352.304
 20
1.52549
 30
0.0
 11
352.227
 21
1.38768
 31
0.0
  0
LINE
  8
0
 62
     0
 10
352.227
 20
1.38768
 30
0.0
 11
352.14
 21
1.25677
 31
0.0
  0
LINE
  8
0
 62
     0
 10
352.14
 20
1.25677
 30
0.0
 11
352.042
 21
1.13412
 31
0.0
  0
LINE
  8
0
 62
     0
 10
352.042
 20
1.13412
 30
0.0
 11
351.936
 21
1.01975
 31
0.0
  0
LINE
  8
0
 62
     0
 10
351.936
 20
1.01975
 30
0.0
 11
351.82
 21
0.912262
 31
0.0
  0
LINE
  8
0
 62
     0
 10
351.82
 20
0.912262
 30
0.0
 11
351.696
 21
0.815799
 31
0.0
  0
LINE
  8
0
 62
     0
 10
351.696
 20
0.815799
 30
0.0
 11
351.565
 21
0.727604
 31
0.0
  0
LINE
  8
0
 62
     0
 10
351.565
 20
0.727604
 30
0.0
 11
351.429
 21
0.651813
 31
0.0
  0
LINE
  8
0
 62
     0
 10
351.429
 20
0.651813
 30
0.0
 11
351.287
 21
0.585668
 31
0.0
  0
LINE
  8
0
 62
     0
 10
351.287
 20
0.585668
 30
0.0
 11
351.139
 21
0.530546
 31
0.0
  0
LINE
  8
0
 62
     0
 10
351.139
 20
0.530546
 30
0.0
 11
350.988
 21
0.487825
 31
0.0
  0
LINE
  8
0
 62
     0
 10
350.988
 20
0.487825
 30
0.0
 11
350.833
 21
0.45751
 31
0.0
  0
LINE
  8
0
 62
     0
 10
350.833
 20
0.45751
 30
0.0
 11
350.678
 21
0.439593
 31
0.0
  0
LINE
  8
0
 62
     0
 10
350.678
 20
0.439593
 30
0.0
 11
350.522
 21
0.432703
 31
0.0
  0
LINE
  8
0
 62
     0
 10
350.522
 20
0.432703
 30
0.0
 11
2.096
 21
0.432703
 31
0.0
  0
LINE
  8
0
 62
     0
 10
2.096
 20
0.432703
 30
0.0
 11
1.9389
 21
0.439593
 31
0.0
  0
LINE
  8
0
 62
     0
 10
1.9389
 20
0.439593
 30
0.0
 11
1.7818
 21
0.45751
 31
0.0
  0
LINE
  8
0
 62
     0
 10
1.7818
 20
0.45751
 30
0.0
 11
1.62884
 21
0.487825
 31
0.0
  0
LINE
  8
0
 62
     0
 10
1.62884
 20
0.487825
 30
0.0
 11
1.47588
 21
0.530546
 31
0.0
  0
LINE
  8
0
 62
     0
 10
1.47588
 20
0.530546
 30
0.0
 11
1.32981
 21
0.585668
 31
0.0
  0
LINE
  8
0
 62
     0
 10
1.32981
 20
0.585668
 30
0.0
 11
1.18787
 21
0.651813
 31
0.0
  0
LINE
  8
0
 62
     0
 10
1.18787
 20
0.651813
 30
0.0
 11
1.05006
 21
0.727604
 31
0.0
  0
LINE
  8
0
 62
     0
 10
1.05006
 20
0.727604
 30
0.0
 11
0.919152
 21
0.815799
 31
0.0
  0
LINE
  8
0
 62
     0
 10
0.919152
 20
0.815799
 30
0.0
 11
0.796505
 21
0.912262
 31
0.0
  0
LINE
  8
0
 62
     0
 10
0.796505
 20
0.912262
 30
0.0
 11
0.680752
 21
1.01975
 31
0.0
  0
LINE
  8
0
 62
     0
 10
0.680752
 20
1.01975
 30
0.0
 11
0.574643
 21
1.13412
 31
0.0
  0
LINE
  8
0
 62
     0
 10
0.574643
 20
1.13412
 30
0.0
 11
0.4768
 21
1.25677
 31
0.0
  0
LINE
  8
0
 62
     0
 10
0.4768
 20
1.25677
 30
0.0
 11
0.389985
 21
1.38768
 31
0.0
  0
LINE
  8
0
 62
     0
 10
0.389985
 20
1.38768
 30
0.0
 11
0.312815
 21
1.52549
 31
0.0
  0
LINE
  8
0
 62
     0
 10
0.312815
 20
1.52549
 30
0.0
 11
0.248047
 21
1.6688
 31
0.0
  0
LINE
  8
0
 62
     0
 10
0.248047
 20
1.6688
 30
0.0
 11
0.192925
 21
1.81488
 31
0.0
  0
LINE
  8
0
 62
     0
 10
0.192925
 20
1.81488
 30
0.0
 11
0.150206
 21
1.96646
 31
0.0
  0
LINE
  8
0
 62
     0
 10
0.150206
 20
1.96646
 30
0.0
 11
0.119889
 21
2.1208
 31
0.0
  0
LINE
  8
0
 62
     0
 10
0.119889
 20
2.1208
 30
0.0
 11
0.101975
 21
2.27652
 31
0.0
  0
LINE
  8
0
 62
     0
 10
0.101975
 20
2.27652
 30
0.0
 11
0.0950846
 21
2.43362
 31
0.0
  0
LINE
  8
0
 62
     0
 10
0.0950846
 20
2.43362
 30
0.0
 11
0.0950846
 21
127.021
 31
0.0
  0
LINE
  8
0
 62
     0
 10
0.0950846
 20
127.021
 30
0.0
 11
0.101975
 21
127.178
 31
0.0
  0
LINE
  8
0
 62
     0
 10
0.101975
 20
127.178
 30
0.0
 11
0.119889
 21
127.335
 31
0.0
  0
LINE
  8
0
 62
     0
 10
0.119889
 20
127.335
 30
0.0
 11
0.150206
 21
127.488
 31
0.0
  0
LINE
  8
0
 62
     0
 10
0.150206
 20
127.488
 30
0.0
 11
0.192925
 21
127.641
 31
0.0
  0
LINE
  8
0
 62
     0
 10
0.192925
 20
127.641
 30
0.0
 11
0.248047
 21
127.787
 31
0.0
  0
LINE
  8
0
 62
     0
 10
0.248047
 20
127.787
 30
0.0
 11
0.312815
 21
127.929
 31
0.0
  0
LINE
  8
0
 62
     0
 10
0.312815
 20
127.929
 30
0.0
 11
0.389985
 21
128.066
 31
0.0
  0
LINE
  8
0
 62
     0
 10
0.389985
 20
128.066
 30
0.0
 11
0.4768
 21
128.198
 31
0.0
  0
LINE
  8
0
 62
     0
 10
0.4768
 20
128.198
 30
0.0
 11
0.574643
 21
128.32
 31
0.0
  0
LINE
  8
0
 62
     0
 10
0.574643
 20
128.32
 30
0.0
 11
0.680752
 21
128.436
 31
0.0
  0
LINE
  8
0
 62
     0
 10
0.680752
 20
128.436
 30
0.0
 11
0.796505
 21
128.542
 31
0.0
  0
LINE
  8
0
 62
     0
 10
0.796505
 20
128.542
 30
0.0
 11
0.919152
 21
128.64
 31
0.0
  0
LINE
  8
0
 62
     0
 10
0.919152
 20
128.64
 30
0.0
 11
1.05006
 21
128.727
 31
0.0
  0
LINE
  8
0
 62
     0
 10
1.05006
 20
128.727
 30
0.0
 11
1.18787
 21
128.804
 31
0.0
  0
LINE
  8
0
 62
     0
 10
1.18787
 20
128.804
 30
0.0
 11
1.32981
 21
128.869
 31
0.0
  0
LINE
  8
0
 62
     0
 10
1.32981
 20
128.869
 30
0.0
 11
1.47588
 21
128.924
 31
0.0
  0
LINE
  8
0
 62
     0
 10
1.47588
 20
128.924
 30
0.0
 11
1.62884
 21
128.966
 31
0.0
  0
LINE
  8
0
 62
     0
 10
1.62884
 20
128.966
 30
0.0
 11
1.7818
 21
128.997
 31
0.0
  0
LINE
  8
0
 62
     0
 10
1.7818
 20
128.997
 30
0.0
 11
1.9389
 21
129.015
 31
0.0
  0
LINE
  8
0
 62
     0
 10
1.9389
 20
129.015
 30
0.0
 11
2.096
 21
129.021
 31
0.0
  0
LINE
  8
0
 62
     0
 10
2.096
 20
129.021
 30
0.0
 11
350.522
 21
129.021
 31
0.0
  0
LINE
  8
0
 62
     0
 10
331.232
 20
16.9595
 30
0.0
 11
345.233
 21
16.9595
 31
0.0
  0
LINE
  8
0
 62
     0
 10
345.233
 20
16.9595
 30
0.0
 11
345.233
 21
2.95865
 31
0.0
  0
LINE
  8
0
 62
     0
 10
345.233
 20
2.95865
 30
0.0
 11
331.232
 21
2.95865
 31
0.0
  0
LINE
  8
0
 62
     0
 10
331.232
 20
2.95865
 30
0.0
 11
331.232
 21
16.9595
 31
0.0
  0
LINE
  8
0
 62
     0
 10
312.182
 20
16.9595
 30
0.0
 11
326.183
 21
16.9595
 31
0.0
  0
LINE
  8
0
 62
     0
 10
326.183
 20
16.9595
 30
0.0
 11
326.183
 21
2.95865
 31
0.0
  0
LINE
  8
0
 62
     0
 10
326.183
 20
2.95865
 30
0.0
 11
312.182
 21
2.95865
 31
0.0
  0
LINE
  8
0
 62
     0
 10
312.182
 20
2.95865
 30
0.0
 11
312.182
 21
16.9595
 31
0.0
  0
LINE
  8
0
 62
     0
 10
293.132
 20
16.9595
 30
0.0
 11
307.133
 21
16.9595
 31
0.0
  0
LINE
  8
0
 62
     0
 10
307.133
 20
16.9595
 30
0.0
 11
307.133
 21
2.95865
 31
0.0
  0
LINE
  8
0
 62
     0
 10
307.133
 20
2.95865
 30
0.0
 11
293.132
 21
2.95865
 31
0.0
  0
LINE
  8
0
 62
     0
 10
293.132
 20
2.95865
 30
0.0
 11
293.132
 21
16.9595
 31
0.0
  0
LINE
  8
0
 62
     0
 10
147.876
 20
21.7206
 30
0.0
 11
147.876
 21
17.0215
 31
0.0
  0
LINE
  8
0
 62
     0
 10
147.876
 20
17.0215
 30
0.0
 11
108.252
 21
17.0215
 31
0.0
  0
LINE
  8
0
 62
     0
 10
108.252
 20
17.0215
 30
0.0
 11
108.252
 21
20.2517
 31
0.0
  0
LINE
  8
0
 62
     0
 10
108.252
 20
20.2517
 30
0.0
 11
101.502
 21
20.2517
 31
0.0
  0
LINE
  8
0
 62
     0
 10
101.502
 20
20.2517
 30
0.0
 11
101.502
 21
17.0215
 31
0.0
  0
LINE
  8
0
 62
     0
 10
101.502
 20
17.0215
 30
0.0
 11
100.677
 21
17.0215
 31
0.0
  0
LINE
  8
0
 62
     0
 10
100.677
 20
17.0215
 30
0.0
 11
100.677
 21
14.2214
 31
0.0
  0
LINE
  8
0
 62
     0
 10
100.677
 20
14.2214
 30
0.0
 11
101.502
 21
14.2214
 31
0.0
  0
LINE
  8
0
 62
     0
 10
101.502
 20
14.2214
 30
0.0
 11
101.502
 21
7.95129
 31
0.0
  0
LINE
  8
0
 62
     0
 10
101.502
 20
7.95129
 30
0.0
 11
103.226
 21
7.95129
 31
0.0
  0
LINE
  8
0
 62
     0
 10
103.226
 20
7.95129
 30
0.0
 11
103.226
 21
6.751
 31
0.0
  0
LINE
  8
0
 62
     0
 10
103.226
 20
6.751
 30
0.0
 11
106.527
 21
6.751
 31
0.0
  0
LINE
  8
0
 62
     0
 10
106.527
 20
6.751
 30
0.0
 11
106.527
 21
7.95129
 31
0.0
  0
LINE
  8
0
 62
     0
 10
106.527
 20
7.95129
 30
0.0
 11
108.252
 21
7.95129
 31
0.0
  0
LINE
  8
0
 62
     0
 10
108.252
 20
7.95129
 30
0.0
 11
108.252
 21
12.4216
 31
0.0
  0
LINE
  8
0
 62
     0
 10
108.252
 20
12.4216
 30
0.0
 11
147.876
 21
12.4216
 31
0.0
  0
LINE
  8
0
 62
     0
 10
147.876
 20
12.4216
 30
0.0
 11
147.876
 21
7.72114
 31
0.0
  0
LINE
  8
0
 62
     0
 10
147.876
 20
7.72114
 30
0.0
 11
161.877
 21
7.72114
 31
0.0
  0
LINE
  8
0
 62
     0
 10
161.877
 20
7.72114
 30
0.0
 11
161.877
 21
12.4216
 31
0.0
  0
LINE
  8
0
 62
     0
 10
161.877
 20
12.4216
 30
0.0
 11
201.501
 21
12.4216
 31
0.0
  0
LINE
  8
0
 62
     0
 10
201.501
 20
12.4216
 30
0.0
 11
201.501
 21
7.95129
 31
0.0
  0
LINE
  8
0
 62
     0
 10
201.501
 20
7.95129
 30
0.0
 11
203.226
 21
7.95129
 31
0.0
  0
LINE
  8
0
 62
     0
 10
203.226
 20
7.95129
 30
0.0
 11
203.226
 21
6.751
 31
0.0
  0
LINE
  8
0
 62
     0
 10
203.226
 20
6.751
 30
0.0
 11
206.527
 21
6.751
 31
0.0
  0
LINE
  8
0
 62
     0
 10
206.527
 20
6.751
 30
0.0
 11
206.527
 21
7.95129
 31
0.0
  0
LINE
  8
0
 62
     0
 10
206.527
 20
7.95129
 30
0.0
 11
208.252
 21
7.95129
 31
0.0
  0
LINE
  8
0
 62
     0
 10
208.252
 20
7.95129
 30
0.0
 11
208.252
 21
14.2214
 31
0.0
  0
LINE
  8
0
 62
     0
 10
208.252
 20
14.2214
 30
0.0
 11
209.076
 21
14.2214
 31
0.0
  0
LINE
  8
0
 62
     0
 10
209.076
 20
14.2214
 30
0.0
 11
209.076
 21
17.0215
 31
0.0
  0
LINE
  8
0
 62
     0
 10
209.076
 20
17.0215
 30
0.0
 11
208.252
 21
17.0215
 31
0.0
  0
LINE
  8
0
 62
     0
 10
208.252
 20
17.0215
 30
0.0
 11
208.252
 21
20.2517
 31
0.0
  0
LINE
  8
0
 62
     0
 10
208.252
 20
20.2517
 30
0.0
 11
201.501
 21
20.2517
 31
0.0
  0
LINE
  8
0
 62
     0
 10
201.501
 20
20.2517
 30
0.0
 11
201.501
 21
17.0215
 31
0.0
  0
LINE
  8
0
 62
     0
 10
201.501
 20
17.0215
 30
0.0
 11
161.877
 21
17.0215
 31
0.0
  0
LINE
  8
0
 62
     0
 10
161.877
 20
17.0215
 30
0.0
 11
161.877
 21
21.7206
 31
0.0
  0
LINE
  8
0
 62
     0
 10
161.877
 20
21.7206
 30
0.0
 11
147.876
 21
21.7206
 31
0.0
  0
LINE
  8
0
 62
     0
 10
266.938
 20
21.7206
 30
0.0
 11
280.938
 21
21.7206
 31
0.0
  0
LINE
  8
0
 62
     0
 10
280.938
 20
21.7206
 30
0.0
 11
280.938
 21
7.72114
 31
0.0
  0
LINE
  8
0
 62
     0
 10
280.938
 20
7.72114
 30
0.0
 11
266.938
 21
7.72114
 31
0.0
  0
LINE
  8
0
 62
     0
 10
266.938
 20
7.72114
 30
0.0
 11
266.938
 21
21.7206
 31
0.0
  0
LINE
  8
0
 62
     0
 10
243.126
 20
21.7206
 30
0.0
 11
257.127
 21
21.7206
 31
0.0
  0
LINE
  8
0
 62
     0
 10
257.127
 20
21.7206
 30
0.0
 11
257.127
 21
7.72114
 31
0.0
  0
LINE
  8
0
 62
     0
 10
257.127
 20
7.72114
 30
0.0
 11
243.126
 21
7.72114
 31
0.0
  0
LINE
  8
0
 62
     0
 10
243.126
 20
7.72114
 30
0.0
 11
243.126
 21
21.7206
 31
0.0
  0
LINE
  8
0
 62
     0
 10
219.313
 20
21.7206
 30
0.0
 11
233.313
 21
21.7206
 31
0.0
  0
LINE
  8
0
 62
     0
 10
233.313
 20
21.7206
 30
0.0
 11
233.313
 21
7.72114
 31
0.0
  0
LINE
  8
0
 62
     0
 10
233.313
 20
7.72114
 30
0.0
 11
219.313
 21
7.72114
 31
0.0
  0
LINE
  8
0
 62
     0
 10
219.313
 20
7.72114
 30
0.0
 11
219.313
 21
21.7206
 31
0.0
  0
LINE
  8
0
 62
     0
 10
76.4385
 20
21.7206
 30
0.0
 11
90.4378
 21
21.7206
 31
0.0
  0
LINE
  8
0
 62
     0
 10
90.4378
 20
21.7206
 30
0.0
 11
90.4378
 21
7.72114
 31
0.0
  0
LINE
  8
0
 62
     0
 10
90.4378
 20
7.72114
 30
0.0
 11
76.4385
 21
7.72114
 31
0.0
  0
LINE
  8
0
 62
     0
 10
76.4385
 20
7.72114
 30
0.0
 11
76.4385
 21
21.7206
 31
0.0
  0
LINE
  8
0
 62
     0
 10
52.626
 20
21.7206
 30
0.0
 11
66.6267
 21
21.7206
 31
0.0
  0
LINE
  8
0
 62
     0
 10
66.6267
 20
21.7206
 30
0.0
 11
66.6267
 21
7.72114
 31
0.0
  0
LINE
  8
0
 62
     0
 10
66.6267
 20
7.72114
 30
0.0
 11
52.626
 21
7.72114
 31
0.0
  0
LINE
  8
0
 62
     0
 10
52.626
 20
7.72114
 30
0.0
 11
52.626
 21
21.7206
 31
0.0
  0
LINE
  8
0
 62
     0
 10
28.8134
 20
21.7206
 30
0.0
 11
42.8128
 21
21.7206
 31
0.0
  0
LINE
  8
0
 62
     0
 10
42.8128
 20
21.7206
 30
0.0
 11
42.8128
 21
7.72114
 31
0.0
  0
LINE
  8
0
 62
     0
 10
42.8128
 20
7.72114
 30
0.0
 11
28.8134
 21
7.72114
 31
0.0
  0
LINE
  8
0
 62
     0
 10
28.8134
 20
7.72114
 30
0.0
 11
28.8134
 21
21.7206
 31
0.0
  0
LINE
  8
0
 62
     0
 10
312.182
 20
36.0094
 30
0.0
 11
326.183
 21
36.0094
 31
0.0
  0
LINE
  8
0
 62
     0
 10
326.183
 20
36.0094
 30
0.0
 11
326.183
 21
22.0086
 31
0.0
  0
LINE
  8
0
 62
     0
 10
326.183
 20
22.0086
 30
0.0
 11
312.182
 21
22.0086
 31
0.0
  0
LINE
  8
0
 62
     0
 10
312.182
 20
22.0086
 30
0.0
 11
312.182
 21
36.0094
 31
0.0
  0
LINE
  8
0
 62
     0
 10
271.701
 20
40.7705
 30
0.0
 11
271.701
 21
36.0715
 31
0.0
  0
LINE
  8
0
 62
     0
 10
271.701
 20
36.0715
 30
0.0
 11
270.177
 21
36.0715
 31
0.0
  0
LINE
  8
0
 62
     0
 10
270.177
 20
36.0715
 30
0.0
 11
270.177
 21
39.3016
 31
0.0
  0
LINE
  8
0
 62
     0
 10
270.177
 20
39.3016
 30
0.0
 11
263.427
 21
39.3016
 31
0.0
  0
LINE
  8
0
 62
     0
 10
263.427
 20
39.3016
 30
0.0
 11
263.427
 21
36.0715
 31
0.0
  0
LINE
  8
0
 62
     0
 10
263.427
 20
36.0715
 30
0.0
 11
262.602
 21
36.0715
 31
0.0
  0
LINE
  8
0
 62
     0
 10
262.602
 20
36.0715
 30
0.0
 11
262.602
 21
33.2714
 31
0.0
  0
LINE
  8
0
 62
     0
 10
262.602
 20
33.2714
 30
0.0
 11
263.427
 21
33.2714
 31
0.0
  0
LINE
  8
0
 62
     0
 10
263.427
 20
33.2714
 30
0.0
 11
263.427
 21
27.0013
 31
0.0
  0
LINE
  8
0
 62
     0
 10
263.427
 20
27.0013
 30
0.0
 11
265.151
 21
27.0013
 31
0.0
  0
LINE
  8
0
 62
     0
 10
265.151
 20
27.0013
 30
0.0
 11
265.151
 21
25.801
 31
0.0
  0
LINE
  8
0
 62
     0
 10
265.151
 20
25.801
 30
0.0
 11
268.452
 21
25.801
 31
0.0
  0
LINE
  8
0
 62
     0
 10
268.452
 20
25.801
 30
0.0
 11
268.452
 21
27.0013
 31
0.0
  0
LINE
  8
0
 62
     0
 10
268.452
 20
27.0013
 30
0.0
 11
270.177
 21
27.0013
 31
0.0
  0
LINE
  8
0
 62
     0
 10
270.177
 20
27.0013
 30
0.0
 11
270.177
 21
31.4716
 31
0.0
  0
LINE
  8
0
 62
     0
 10
270.177
 20
31.4716
 30
0.0
 11
271.701
 21
31.4716
 31
0.0
  0
LINE
  8
0
 62
     0
 10
271.701
 20
31.4716
 30
0.0
 11
271.701
 21
26.7711
 31
0.0
  0
LINE
  8
0
 62
     0
 10
271.701
 20
26.7711
 30
0.0
 11
285.702
 21
26.7711
 31
0.0
  0
LINE
  8
0
 62
     0
 10
285.702
 20
26.7711
 30
0.0
 11
285.702
 21
31.4716
 31
0.0
  0
LINE
  8
0
 62
     0
 10
285.702
 20
31.4716
 30
0.0
 11
287.226
 21
31.4716
 31
0.0
  0
LINE
  8
0
 62
     0
 10
287.226
 20
31.4716
 30
0.0
 11
287.226
 21
27.0013
 31
0.0
  0
LINE
  8
0
 62
     0
 10
287.226
 20
27.0013
 30
0.0
 11
288.951
 21
27.0013
 31
0.0
  0
LINE
  8
0
 62
     0
 10
288.951
 20
27.0013
 30
0.0
 11
288.951
 21
25.801
 31
0.0
  0
LINE
  8
0
 62
     0
 10
288.951
 20
25.801
 30
0.0
 11
292.252
 21
25.801
 31
0.0
  0
LINE
  8
0
 62
     0
 10
292.252
 20
25.801
 30
0.0
 11
292.252
 21
27.0013
 31
0.0
  0
LINE
  8
0
 62
     0
 10
292.252
 20
27.0013
 30
0.0
 11
293.977
 21
27.0013
 31
0.0
  0
LINE
  8
0
 62
     0
 10
293.977
 20
27.0013
 30
0.0
 11
293.977
 21
33.2714
 31
0.0
  0
LINE
  8
0
 62
     0
 10
293.977
 20
33.2714
 30
0.0
 11
294.801
 21
33.2714
 31
0.0
  0
LINE
  8
0
 62
     0
 10
294.801
 20
33.2714
 30
0.0
 11
294.801
 21
36.0715
 31
0.0
  0
LINE
  8
0
 62
     0
 10
294.801
 20
36.0715
 30
0.0
 11
293.977
 21
36.0715
 31
0.0
  0
LINE
  8
0
 62
     0
 10
293.977
 20
36.0715
 30
0.0
 11
293.977
 21
39.3016
 31
0.0
  0
LINE
  8
0
 62
     0
 10
293.977
 20
39.3016
 30
0.0
 11
287.226
 21
39.3016
 31
0.0
  0
LINE
  8
0
 62
     0
 10
287.226
 20
39.3016
 30
0.0
 11
287.226
 21
36.0715
 31
0.0
  0
LINE
  8
0
 62
     0
 10
287.226
 20
36.0715
 30
0.0
 11
285.702
 21
36.0715
 31
0.0
  0
LINE
  8
0
 62
     0
 10
285.702
 20
36.0715
 30
0.0
 11
285.702
 21
40.7705
 31
0.0
  0
LINE
  8
0
 62
     0
 10
285.702
 20
40.7705
 30
0.0
 11
271.701
 21
40.7705
 31
0.0
  0
LINE
  8
0
 62
     0
 10
38.3385
 20
40.7705
 30
0.0
 11
38.3385
 21
36.0715
 31
0.0
  0
LINE
  8
0
 62
     0
 10
38.3385
 20
36.0715
 30
0.0
 11
36.8131
 21
36.0715
 31
0.0
  0
LINE
  8
0
 62
     0
 10
36.8131
 20
36.0715
 30
0.0
 11
36.8131
 21
39.3016
 31
0.0
  0
LINE
  8
0
 62
     0
 10
36.8131
 20
39.3016
 30
0.0
 11
30.0633
 21
39.3016
 31
0.0
  0
LINE
  8
0
 62
     0
 10
30.0633
 20
39.3016
 30
0.0
 11
30.0633
 21
36.0715
 31
0.0
  0
LINE
  8
0
 62
     0
 10
30.0633
 20
36.0715
 30
0.0
 11
29.2378
 21
36.0715
 31
0.0
  0
LINE
  8
0
 62
     0
 10
29.2378
 20
36.0715
 30
0.0
 11
29.2378
 21
33.2714
 31
0.0
  0
LINE
  8
0
 62
     0
 10
29.2378
 20
33.2714
 30
0.0
 11
30.0633
 21
33.2714
 31
0.0
  0
LINE
  8
0
 62
     0
 10
30.0633
 20
33.2714
 30
0.0
 11
30.0633
 21
27.0013
 31
0.0
  0
LINE
  8
0
 62
     0
 10
30.0633
 20
27.0013
 30
0.0
 11
31.7886
 21
27.0013
 31
0.0
  0
LINE
  8
0
 62
     0
 10
31.7886
 20
27.0013
 30
0.0
 11
31.7886
 21
25.801
 31
0.0
  0
LINE
  8
0
 62
     0
 10
31.7886
 20
25.801
 30
0.0
 11
35.089
 21
25.801
 31
0.0
  0
LINE
  8
0
 62
     0
 10
35.089
 20
25.801
 30
0.0
 11
35.089
 21
27.0013
 31
0.0
  0
LINE
  8
0
 62
     0
 10
35.089
 20
27.0013
 30
0.0
 11
36.8131
 21
27.0013
 31
0.0
  0
LINE
  8
0
 62
     0
 10
36.8131
 20
27.0013
 30
0.0
 11
36.8131
 21
31.4716
 31
0.0
  0
LINE
  8
0
 62
     0
 10
36.8131
 20
31.4716
 30
0.0
 11
38.3385
 21
31.4716
 31
0.0
  0
LINE
  8
0
 62
     0
 10
38.3385
 20
31.4716
 30
0.0
 11
38.3385
 21
26.7711
 31
0.0
  0
LINE
  8
0
 62
     0
 10
38.3385
 20
26.7711
 30
0.0
 11
52.3378
 21
26.7711
 31
0.0
  0
LINE
  8
0
 62
     0
 10
52.3378
 20
26.7711
 30
0.0
 11
52.3378
 21
31.4716
 31
0.0
  0
LINE
  8
0
 62
     0
 10
52.3378
 20
31.4716
 30
0.0
 11
53.8635
 21
31.4716
 31
0.0
  0
LINE
  8
0
 62
     0
 10
53.8635
 20
31.4716
 30
0.0
 11
53.8635
 21
27.0013
 31
0.0
  0
LINE
  8
0
 62
     0
 10
53.8635
 20
27.0013
 30
0.0
 11
55.5886
 21
27.0013
 31
0.0
  0
LINE
  8
0
 62
     0
 10
55.5886
 20
27.0013
 30
0.0
 11
55.5886
 21
25.801
 31
0.0
  0
LINE
  8
0
 62
     0
 10
55.5886
 20
25.801
 30
0.0
 11
58.8892
 21
25.801
 31
0.0
  0
LINE
  8
0
 62
     0
 10
58.8892
 20
25.801
 30
0.0
 11
58.8892
 21
27.0013
 31
0.0
  0
LINE
  8
0
 62
     0
 10
58.8892
 20
27.0013
 30
0.0
 11
60.6129
 21
27.0013
 31
0.0
  0
LINE
  8
0
 62
     0
 10
60.6129
 20
27.0013
 30
0.0
 11
60.6129
 21
33.2714
 31
0.0
  0
LINE
  8
0
 62
     0
 10
60.6129
 20
33.2714
 30
0.0
 11
61.4384
 21
33.2714
 31
0.0
  0
LINE
  8
0
 62
     0
 10
61.4384
 20
33.2714
 30
0.0
 11
61.4384
 21
36.0715
 31
0.0
  0
LINE
  8
0
 62
     0
 10
61.4384
 20
36.0715
 30
0.0
 11
60.6129
 21
36.0715
 31
0.0
  0
LINE
  8
0
 62
     0
 10
60.6129
 20
36.0715
 30
0.0
 11
60.6129
 21
39.3016
 31
0.0
  0
LINE
  8
0
 62
     0
 10
60.6129
 20
39.3016
 30
0.0
 11
53.8635
 21
39.3016
 31
0.0
  0
LINE
  8
0
 62
     0
 10
53.8635
 20
39.3016
 30
0.0
 11
53.8635
 21
36.0715
 31
0.0
  0
LINE
  8
0
 62
     0
 10
53.8635
 20
36.0715
 30
0.0
 11
52.3378
 21
36.0715
 31
0.0
  0
LINE
  8
0
 62
     0
 10
52.3378
 20
36.0715
 30
0.0
 11
52.3378
 21
40.7705
 31
0.0
  0
LINE
  8
0
 62
     0
 10
52.3378
 20
40.7705
 30
0.0
 11
38.3385
 21
40.7705
 31
0.0
  0
LINE
  8
0
 62
     0
 10
335.996
 20
40.7705
 30
0.0
 11
349.995
 21
40.7705
 31
0.0
  0
LINE
  8
0
 62
     0
 10
349.995
 20
40.7705
 30
0.0
 11
349.995
 21
26.7711
 31
0.0
  0
LINE
  8
0
 62
     0
 10
349.995
 20
26.7711
 30
0.0
 11
335.996
 21
26.7711
 31
0.0
  0
LINE
  8
0
 62
     0
 10
335.996
 20
26.7711
 30
0.0
 11
335.996
 21
40.7705
 31
0.0
  0
LINE
  8
0
 62
     0
 10
240.746
 20
40.7705
 30
0.0
 11
254.744
 21
40.7705
 31
0.0
  0
LINE
  8
0
 62
     0
 10
254.744
 20
40.7705
 30
0.0
 11
254.744
 21
26.7711
 31
0.0
  0
LINE
  8
0
 62
     0
 10
254.744
 20
26.7711
 30
0.0
 11
240.746
 21
26.7711
 31
0.0
  0
LINE
  8
0
 62
     0
 10
240.746
 20
26.7711
 30
0.0
 11
240.746
 21
40.7705
 31
0.0
  0
LINE
  8
0
 62
     0
 10
221.696
 20
40.7705
 30
0.0
 11
235.695
 21
40.7705
 31
0.0
  0
LINE
  8
0
 62
     0
 10
235.695
 20
40.7705
 30
0.0
 11
235.695
 21
26.7711
 31
0.0
  0
LINE
  8
0
 62
     0
 10
235.695
 20
26.7711
 30
0.0
 11
221.696
 21
26.7711
 31
0.0
  0
LINE
  8
0
 62
     0
 10
221.696
 20
26.7711
 30
0.0
 11
221.696
 21
40.7705
 31
0.0
  0
LINE
  8
0
 62
     0
 10
202.646
 20
40.7705
 30
0.0
 11
216.645
 21
40.7705
 31
0.0
  0
LINE
  8
0
 62
     0
 10
216.645
 20
40.7705
 30
0.0
 11
216.645
 21
26.7711
 31
0.0
  0
LINE
  8
0
 62
     0
 10
216.645
 20
26.7711
 30
0.0
 11
202.646
 21
26.7711
 31
0.0
  0
LINE
  8
0
 62
     0
 10
202.646
 20
26.7711
 30
0.0
 11
202.646
 21
40.7705
 31
0.0
  0
LINE
  8
0
 62
     0
 10
183.596
 20
40.7705
 30
0.0
 11
197.595
 21
40.7705
 31
0.0
  0
LINE
  8
0
 62
     0
 10
197.595
 20
40.7705
 30
0.0
 11
197.595
 21
26.7711
 31
0.0
  0
LINE
  8
0
 62
     0
 10
197.595
 20
26.7711
 30
0.0
 11
183.596
 21
26.7711
 31
0.0
  0
LINE
  8
0
 62
     0
 10
183.596
 20
26.7711
 30
0.0
 11
183.596
 21
40.7705
 31
0.0
  0
LINE
  8
0
 62
     0
 10
164.546
 20
40.7705
 30
0.0
 11
178.545
 21
40.7705
 31
0.0
  0
LINE
  8
0
 62
     0
 10
178.545
 20
40.7705
 30
0.0
 11
178.545
 21
26.7711
 31
0.0
  0
LINE
  8
0
 62
     0
 10
178.545
 20
26.7711
 30
0.0
 11
164.546
 21
26.7711
 31
0.0
  0
LINE
  8
0
 62
     0
 10
164.546
 20
26.7711
 30
0.0
 11
164.546
 21
40.7705
 31
0.0
  0
LINE
  8
0
 62
     0
 10
145.496
 20
40.7705
 30
0.0
 11
159.495
 21
40.7705
 31
0.0
  0
LINE
  8
0
 62
     0
 10
159.495
 20
40.7705
 30
0.0
 11
159.495
 21
26.7711
 31
0.0
  0
LINE
  8
0
 62
     0
 10
159.495
 20
26.7711
 30
0.0
 11
145.496
 21
26.7711
 31
0.0
  0
LINE
  8
0
 62
     0
 10
145.496
 20
26.7711
 30
0.0
 11
145.496
 21
40.7705
 31
0.0
  0
LINE
  8
0
 62
     0
 10
126.446
 20
40.7705
 30
0.0
 11
140.445
 21
40.7705
 31
0.0
  0
LINE
  8
0
 62
     0
 10
140.445
 20
40.7705
 30
0.0
 11
140.445
 21
26.7711
 31
0.0
  0
LINE
  8
0
 62
     0
 10
140.445
 20
26.7711
 30
0.0
 11
126.446
 21
26.7711
 31
0.0
  0
LINE
  8
0
 62
     0
 10
126.446
 20
26.7711
 30
0.0
 11
126.446
 21
40.7705
 31
0.0
  0
LINE
  8
0
 62
     0
 10
107.396
 20
40.7705
 30
0.0
 11
121.395
 21
40.7705
 31
0.0
  0
LINE
  8
0
 62
     0
 10
121.395
 20
40.7705
 30
0.0
 11
121.395
 21
26.7711
 31
0.0
  0
LINE
  8
0
 62
     0
 10
121.395
 20
26.7711
 30
0.0
 11
107.396
 21
26.7711
 31
0.0
  0
LINE
  8
0
 62
     0
 10
107.396
 20
26.7711
 30
0.0
 11
107.396
 21
40.7705
 31
0.0
  0
LINE
  8
0
 62
     0
 10
88.3461
 20
40.7705
 30
0.0
 11
102.345
 21
40.7705
 31
0.0
  0
LINE
  8
0
 62
     0
 10
102.345
 20
40.7705
 30
0.0
 11
102.345
 21
26.7711
 31
0.0
  0
LINE
  8
0
 62
     0
 10
102.345
 20
26.7711
 30
0.0
 11
88.3461
 21
26.7711
 31
0.0
  0
LINE
  8
0
 62
     0
 10
88.3461
 20
26.7711
 30
0.0
 11
88.3461
 21
40.7705
 31
0.0
  0
LINE
  8
0
 62
     0
 10
69.2961
 20
40.7705
 30
0.0
 11
83.2954
 21
40.7705
 31
0.0
  0
LINE
  8
0
 62
     0
 10
83.2954
 20
40.7705
 30
0.0
 11
83.2954
 21
26.7711
 31
0.0
  0
LINE
  8
0
 62
     0
 10
83.2954
 20
26.7711
 30
0.0
 11
69.2961
 21
26.7711
 31
0.0
  0
LINE
  8
0
 62
     0
 10
69.2961
 20
26.7711
 30
0.0
 11
69.2961
 21
40.7705
 31
0.0
  0
LINE
  8
0
 62
     0
 10
2.62103
 20
40.7705
 30
0.0
 11
16.6205
 21
40.7705
 31
0.0
  0
LINE
  8
0
 62
     0
 10
16.6205
 20
40.7705
 30
0.0
 11
16.6205
 21
26.7711
 31
0.0
  0
LINE
  8
0
 62
     0
 10
16.6205
 20
26.7711
 30
0.0
 11
2.62103
 21
26.7711
 31
0.0
  0
LINE
  8
0
 62
     0
 10
2.62103
 20
26.7711
 30
0.0
 11
2.62103
 21
40.7705
 31
0.0
  0
LINE
  8
0
 62
     0
 10
281.226
 20
59.8205
 30
0.0
 11
281.226
 21
55.1215
 31
0.0
  0
LINE
  8
0
 62
     0
 10
281.226
 20
55.1215
 30
0.0
 11
279.702
 21
55.1215
 31
0.0
  0
LINE
  8
0
 62
     0
 10
279.702
 20
55.1215
 30
0.0
 11
279.702
 21
58.3516
 31
0.0
  0
LINE
  8
0
 62
     0
 10
279.702
 20
58.3516
 30
0.0
 11
272.952
 21
58.3516
 31
0.0
  0
LINE
  8
0
 62
     0
 10
272.952
 20
58.3516
 30
0.0
 11
272.952
 21
55.1215
 31
0.0
  0
LINE
  8
0
 62
     0
 10
272.952
 20
55.1215
 30
0.0
 11
272.127
 21
55.1215
 31
0.0
  0
LINE
  8
0
 62
     0
 10
272.127
 20
55.1215
 30
0.0
 11
272.127
 21
52.3215
 31
0.0
  0
LINE
  8
0
 62
     0
 10
272.127
 20
52.3215
 30
0.0
 11
272.952
 21
52.3215
 31
0.0
  0
LINE
  8
0
 62
     0
 10
272.952
 20
52.3215
 30
0.0
 11
272.952
 21
46.0513
 31
0.0
  0
LINE
  8
0
 62
     0
 10
272.952
 20
46.0513
 30
0.0
 11
274.676
 21
46.0513
 31
0.0
  0
LINE
  8
0
 62
     0
 10
274.676
 20
46.0513
 30
0.0
 11
274.676
 21
44.8511
 31
0.0
  0
LINE
  8
0
 62
     0
 10
274.676
 20
44.8511
 30
0.0
 11
277.977
 21
44.8511
 31
0.0
  0
LINE
  8
0
 62
     0
 10
277.977
 20
44.8511
 30
0.0
 11
277.977
 21
46.0513
 31
0.0
  0
LINE
  8
0
 62
     0
 10
277.977
 20
46.0513
 30
0.0
 11
279.702
 21
46.0513
 31
0.0
  0
LINE
  8
0
 62
     0
 10
279.702
 20
46.0513
 30
0.0
 11
279.702
 21
50.5217
 31
0.0
  0
LINE
  8
0
 62
     0
 10
279.702
 20
50.5217
 30
0.0
 11
281.226
 21
50.5217
 31
0.0
  0
LINE
  8
0
 62
     0
 10
281.226
 20
50.5217
 30
0.0
 11
281.226
 21
45.8212
 31
0.0
  0
LINE
  8
0
 62
     0
 10
281.226
 20
45.8212
 30
0.0
 11
295.227
 21
45.8212
 31
0.0
  0
LINE
  8
0
 62
     0
 10
295.227
 20
45.8212
 30
0.0
 11
295.227
 21
50.5217
 31
0.0
  0
LINE
  8
0
 62
     0
 10
295.227
 20
50.5217
 30
0.0
 11
296.751
 21
50.5217
 31
0.0
  0
LINE
  8
0
 62
     0
 10
296.751
 20
50.5217
 30
0.0
 11
296.751
 21
46.0513
 31
0.0
  0
LINE
  8
0
 62
     0
 10
296.751
 20
46.0513
 30
0.0
 11
298.476
 21
46.0513
 31
0.0
  0
LINE
  8
0
 62
     0
 10
298.476
 20
46.0513
 30
0.0
 11
298.476
 21
44.8511
 31
0.0
  0
LINE
  8
0
 62
     0
 10
298.476
 20
44.8511
 30
0.0
 11
301.777
 21
44.8511
 31
0.0
  0
LINE
  8
0
 62
     0
 10
301.777
 20
44.8511
 30
0.0
 11
301.777
 21
46.0513
 31
0.0
  0
LINE
  8
0
 62
     0
 10
301.777
 20
46.0513
 30
0.0
 11
303.502
 21
46.0513
 31
0.0
  0
LINE
  8
0
 62
     0
 10
303.502
 20
46.0513
 30
0.0
 11
303.502
 21
52.3215
 31
0.0
  0
LINE
  8
0
 62
     0
 10
303.502
 20
52.3215
 30
0.0
 11
304.326
 21
52.3215
 31
0.0
  0
LINE
  8
0
 62
     0
 10
304.326
 20
52.3215
 30
0.0
 11
304.326
 21
55.1215
 31
0.0
  0
LINE
  8
0
 62
     0
 10
304.326
 20
55.1215
 30
0.0
 11
303.502
 21
55.1215
 31
0.0
  0
LINE
  8
0
 62
     0
 10
303.502
 20
55.1215
 30
0.0
 11
303.502
 21
58.3516
 31
0.0
  0
LINE
  8
0
 62
     0
 10
303.502
 20
58.3516
 30
0.0
 11
296.751
 21
58.3516
 31
0.0
  0
LINE
  8
0
 62
     0
 10
296.751
 20
58.3516
 30
0.0
 11
296.751
 21
55.1215
 31
0.0
  0
LINE
  8
0
 62
     0
 10
296.751
 20
55.1215
 30
0.0
 11
295.227
 21
55.1215
 31
0.0
  0
LINE
  8
0
 62
     0
 10
295.227
 20
55.1215
 30
0.0
 11
295.227
 21
59.8205
 31
0.0
  0
LINE
  8
0
 62
     0
 10
295.227
 20
59.8205
 30
0.0
 11
281.226
 21
59.8205
 31
0.0
  0
LINE
  8
0
 62
     0
 10
335.996
 20
59.8205
 30
0.0
 11
349.995
 21
59.8205
 31
0.0
  0
LINE
  8
0
 62
     0
 10
349.995
 20
59.8205
 30
0.0
 11
349.995
 21
45.8212
 31
0.0
  0
LINE
  8
0
 62
     0
 10
349.995
 20
45.8212
 30
0.0
 11
335.996
 21
45.8212
 31
0.0
  0
LINE
  8
0
 62
     0
 10
335.996
 20
45.8212
 30
0.0
 11
335.996
 21
59.8205
 31
0.0
  0
LINE
  8
0
 62
     0
 10
250.271
 20
59.8205
 30
0.0
 11
264.27
 21
59.8205
 31
0.0
  0
LINE
  8
0
 62
     0
 10
264.27
 20
59.8205
 30
0.0
 11
264.27
 21
45.8212
 31
0.0
  0
LINE
  8
0
 62
     0
 10
264.27
 20
45.8212
 30
0.0
 11
250.271
 21
45.8212
 31
0.0
  0
LINE
  8
0
 62
     0
 10
250.271
 20
45.8212
 30
0.0
 11
250.271
 21
59.8205
 31
0.0
  0
LINE
  8
0
 62
     0
 10
231.221
 20
59.8205
 30
0.0
 11
245.22
 21
59.8205
 31
0.0
  0
LINE
  8
0
 62
     0
 10
245.22
 20
59.8205
 30
0.0
 11
245.22
 21
45.8212
 31
0.0
  0
LINE
  8
0
 62
     0
 10
245.22
 20
45.8212
 30
0.0
 11
231.221
 21
45.8212
 31
0.0
  0
LINE
  8
0
 62
     0
 10
231.221
 20
45.8212
 30
0.0
 11
231.221
 21
59.8205
 31
0.0
  0
LINE
  8
0
 62
     0
 10
212.171
 20
59.8205
 30
0.0
 11
226.17
 21
59.8205
 31
0.0
  0
LINE
  8
0
 62
     0
 10
226.17
 20
59.8205
 30
0.0
 11
226.17
 21
45.8212
 31
0.0
  0
LINE
  8
0
 62
     0
 10
226.17
 20
45.8212
 30
0.0
 11
212.171
 21
45.8212
 31
0.0
  0
LINE
  8
0
 62
     0
 10
212.171
 20
45.8212
 30
0.0
 11
212.171
 21
59.8205
 31
0.0
  0
LINE
  8
0
 62
     0
 10
193.121
 20
59.8205
 30
0.0
 11
207.12
 21
59.8205
 31
0.0
  0
LINE
  8
0
 62
     0
 10
207.12
 20
59.8205
 30
0.0
 11
207.12
 21
45.8212
 31
0.0
  0
LINE
  8
0
 62
     0
 10
207.12
 20
45.8212
 30
0.0
 11
193.121
 21
45.8212
 31
0.0
  0
LINE
  8
0
 62
     0
 10
193.121
 20
45.8212
 30
0.0
 11
193.121
 21
59.8205
 31
0.0
  0
LINE
  8
0
 62
     0
 10
174.071
 20
59.8205
 30
0.0
 11
188.07
 21
59.8205
 31
0.0
  0
LINE
  8
0
 62
     0
 10
188.07
 20
59.8205
 30
0.0
 11
188.07
 21
45.8212
 31
0.0
  0
LINE
  8
0
 62
     0
 10
188.07
 20
45.8212
 30
0.0
 11
174.071
 21
45.8212
 31
0.0
  0
LINE
  8
0
 62
     0
 10
174.071
 20
45.8212
 30
0.0
 11
174.071
 21
59.8205
 31
0.0
  0
LINE
  8
0
 62
     0
 10
155.021
 20
59.8205
 30
0.0
 11
169.02
 21
59.8205
 31
0.0
  0
LINE
  8
0
 62
     0
 10
169.02
 20
59.8205
 30
0.0
 11
169.02
 21
45.8212
 31
0.0
  0
LINE
  8
0
 62
     0
 10
169.02
 20
45.8212
 30
0.0
 11
155.021
 21
45.8212
 31
0.0
  0
LINE
  8
0
 62
     0
 10
155.021
 20
45.8212
 30
0.0
 11
155.021
 21
59.8205
 31
0.0
  0
LINE
  8
0
 62
     0
 10
135.971
 20
59.8205
 30
0.0
 11
149.97
 21
59.8205
 31
0.0
  0
LINE
  8
0
 62
     0
 10
149.97
 20
59.8205
 30
0.0
 11
149.97
 21
45.8212
 31
0.0
  0
LINE
  8
0
 62
     0
 10
149.97
 20
45.8212
 30
0.0
 11
135.971
 21
45.8212
 31
0.0
  0
LINE
  8
0
 62
     0
 10
135.971
 20
45.8212
 30
0.0
 11
135.971
 21
59.8205
 31
0.0
  0
LINE
  8
0
 62
     0
 10
116.921
 20
59.8205
 30
0.0
 11
130.92
 21
59.8205
 31
0.0
  0
LINE
  8
0
 62
     0
 10
130.92
 20
59.8205
 30
0.0
 11
130.92
 21
45.8212
 31
0.0
  0
LINE
  8
0
 62
     0
 10
130.92
 20
45.8212
 30
0.0
 11
116.921
 21
45.8212
 31
0.0
  0
LINE
  8
0
 62
     0
 10
116.921
 20
45.8212
 30
0.0
 11
116.921
 21
59.8205
 31
0.0
  0
LINE
  8
0
 62
     0
 10
97.8711
 20
59.8205
 30
0.0
 11
111.87
 21
59.8205
 31
0.0
  0
LINE
  8
0
 62
     0
 10
111.87
 20
59.8205
 30
0.0
 11
111.87
 21
45.8212
 31
0.0
  0
LINE
  8
0
 62
     0
 10
111.87
 20
45.8212
 30
0.0
 11
97.8711
 21
45.8212
 31
0.0
  0
LINE
  8
0
 62
     0
 10
97.8711
 20
45.8212
 30
0.0
 11
97.8711
 21
59.8205
 31
0.0
  0
LINE
  8
0
 62
     0
 10
78.8211
 20
59.8205
 30
0.0
 11
92.8204
 21
59.8205
 31
0.0
  0
LINE
  8
0
 62
     0
 10
92.8204
 20
59.8205
 30
0.0
 11
92.8204
 21
45.8212
 31
0.0
  0
LINE
  8
0
 62
     0
 10
92.8204
 20
45.8212
 30
0.0
 11
78.8211
 21
45.8212
 31
0.0
  0
LINE
  8
0
 62
     0
 10
78.8211
 20
45.8212
 30
0.0
 11
78.8211
 21
59.8205
 31
0.0
  0
LINE
  8
0
 62
     0
 10
59.7711
 20
59.8205
 30
0.0
 11
73.7704
 21
59.8205
 31
0.0
  0
LINE
  8
0
 62
     0
 10
73.7704
 20
59.8205
 30
0.0
 11
73.7704
 21
45.8212
 31
0.0
  0
LINE
  8
0
 62
     0
 10
73.7704
 20
45.8212
 30
0.0
 11
59.7711
 21
45.8212
 31
0.0
  0
LINE
  8
0
 62
     0
 10
59.7711
 20
45.8212
 30
0.0
 11
59.7711
 21
59.8205
 31
0.0
  0
LINE
  8
0
 62
     0
 10
33.5759
 20
59.8205
 30
0.0
 11
47.5767
 21
59.8205
 31
0.0
  0
LINE
  8
0
 62
     0
 10
47.5767
 20
59.8205
 30
0.0
 11
47.5767
 21
45.8212
 31
0.0
  0
LINE
  8
0
 62
     0
 10
47.5767
 20
45.8212
 30
0.0
 11
33.5759
 21
45.8212
 31
0.0
  0
LINE
  8
0
 62
     0
 10
33.5759
 20
45.8212
 30
0.0
 11
33.5759
 21
59.8205
 31
0.0
  0
LINE
  8
0
 62
     0
 10
2.62103
 20
59.8205
 30
0.0
 11
16.6205
 21
59.8205
 31
0.0
  0
LINE
  8
0
 62
     0
 10
16.6205
 20
59.8205
 30
0.0
 11
16.6205
 21
45.8212
 31
0.0
  0
LINE
  8
0
 62
     0
 10
16.6205
 20
45.8212
 30
0.0
 11
2.62103
 21
45.8212
 31
0.0
  0
LINE
  8
0
 62
     0
 10
2.62103
 20
45.8212
 30
0.0
 11
2.62103
 21
59.8205
 31
0.0
  0
LINE
  8
0
 62
     0
 10
335.996
 20
78.8705
 30
0.0
 11
349.995
 21
78.8705
 31
0.0
  0
LINE
  8
0
 62
     0
 10
349.995
 20
78.8705
 30
0.0
 11
349.995
 21
64.8712
 31
0.0
  0
LINE
  8
0
 62
     0
 10
349.995
 20
64.8712
 30
0.0
 11
335.996
 21
64.8712
 31
0.0
  0
LINE
  8
0
 62
     0
 10
335.996
 20
64.8712
 30
0.0
 11
335.996
 21
78.8705
 31
0.0
  0
LINE
  8
0
 62
     0
 10
288.371
 20
78.8705
 30
0.0
 11
302.37
 21
78.8705
 31
0.0
  0
LINE
  8
0
 62
     0
 10
302.37
 20
78.8705
 30
0.0
 11
302.37
 21
64.8712
 31
0.0
  0
LINE
  8
0
 62
     0
 10
302.37
 20
64.8712
 30
0.0
 11
288.371
 21
64.8712
 31
0.0
  0
LINE
  8
0
 62
     0
 10
288.371
 20
64.8712
 30
0.0
 11
288.371
 21
78.8705
 31
0.0
  0
LINE
  8
0
 62
     0
 10
264.557
 20
78.8705
 30
0.0
 11
278.558
 21
78.8705
 31
0.0
  0
LINE
  8
0
 62
     0
 10
278.558
 20
78.8705
 30
0.0
 11
278.558
 21
64.8712
 31
0.0
  0
LINE
  8
0
 62
     0
 10
278.558
 20
64.8712
 30
0.0
 11
264.557
 21
64.8712
 31
0.0
  0
LINE
  8
0
 62
     0
 10
264.557
 20
64.8712
 30
0.0
 11
264.557
 21
78.8705
 31
0.0
  0
LINE
  8
0
 62
     0
 10
245.507
 20
78.8705
 30
0.0
 11
259.508
 21
78.8705
 31
0.0
  0
LINE
  8
0
 62
     0
 10
259.508
 20
78.8705
 30
0.0
 11
259.508
 21
64.8712
 31
0.0
  0
LINE
  8
0
 62
     0
 10
259.508
 20
64.8712
 30
0.0
 11
245.507
 21
64.8712
 31
0.0
  0
LINE
  8
0
 62
     0
 10
245.507
 20
64.8712
 30
0.0
 11
245.507
 21
78.8705
 31
0.0
  0
LINE
  8
0
 62
     0
 10
226.457
 20
78.8705
 30
0.0
 11
240.458
 21
78.8705
 31
0.0
  0
LINE
  8
0
 62
     0
 10
240.458
 20
78.8705
 30
0.0
 11
240.458
 21
64.8712
 31
0.0
  0
LINE
  8
0
 62
     0
 10
240.458
 20
64.8712
 30
0.0
 11
226.457
 21
64.8712
 31
0.0
  0
LINE
  8
0
 62
     0
 10
226.457
 20
64.8712
 30
0.0
 11
226.457
 21
78.8705
 31
0.0
  0
LINE
  8
0
 62
     0
 10
207.407
 20
78.8705
 30
0.0
 11
221.408
 21
78.8705
 31
0.0
  0
LINE
  8
0
 62
     0
 10
221.408
 20
78.8705
 30
0.0
 11
221.408
 21
64.8712
 31
0.0
  0
LINE
  8
0
 62
     0
 10
221.408
 20
64.8712
 30
0.0
 11
207.407
 21
64.8712
 31
0.0
  0
LINE
  8
0
 62
     0
 10
207.407
 20
64.8712
 30
0.0
 11
207.407
 21
78.8705
 31
0.0
  0
LINE
  8
0
 62
     0
 10
188.357
 20
78.8705
 30
0.0
 11
202.358
 21
78.8705
 31
0.0
  0
LINE
  8
0
 62
     0
 10
202.358
 20
78.8705
 30
0.0
 11
202.358
 21
64.8712
 31
0.0
  0
LINE
  8
0
 62
     0
 10
202.358
 20
64.8712
 30
0.0
 11
188.357
 21
64.8712
 31
0.0
  0
LINE
  8
0
 62
     0
 10
188.357
 20
64.8712
 30
0.0
 11
188.357
 21
78.8705
 31
0.0
  0
LINE
  8
0
 62
     0
 10
169.307
 20
78.8705
 30
0.0
 11
183.308
 21
78.8705
 31
0.0
  0
LINE
  8
0
 62
     0
 10
183.308
 20
78.8705
 30
0.0
 11
183.308
 21
64.8712
 31
0.0
  0
LINE
  8
0
 62
     0
 10
183.308
 20
64.8712
 30
0.0
 11
169.307
 21
64.8712
 31
0.0
  0
LINE
  8
0
 62
     0
 10
169.307
 20
64.8712
 30
0.0
 11
169.307
 21
78.8705
 31
0.0
  0
LINE
  8
0
 62
     0
 10
150.257
 20
78.8705
 30
0.0
 11
164.258
 21
78.8705
 31
0.0
  0
LINE
  8
0
 62
     0
 10
164.258
 20
78.8705
 30
0.0
 11
164.258
 21
64.8712
 31
0.0
  0
LINE
  8
0
 62
     0
 10
164.258
 20
64.8712
 30
0.0
 11
150.257
 21
64.8712
 31
0.0
  0
LINE
  8
0
 62
     0
 10
150.257
 20
64.8712
 30
0.0
 11
150.257
 21
78.8705
 31
0.0
  0
LINE
  8
0
 62
     0
 10
131.207
 20
78.8705
 30
0.0
 11
145.208
 21
78.8705
 31
0.0
  0
LINE
  8
0
 62
     0
 10
145.208
 20
78.8705
 30
0.0
 11
145.208
 21
64.8712
 31
0.0
  0
LINE
  8
0
 62
     0
 10
145.208
 20
64.8712
 30
0.0
 11
131.207
 21
64.8712
 31
0.0
  0
LINE
  8
0
 62
     0
 10
131.207
 20
64.8712
 30
0.0
 11
131.207
 21
78.8705
 31
0.0
  0
LINE
  8
0
 62
     0
 10
112.157
 20
78.8705
 30
0.0
 11
126.158
 21
78.8705
 31
0.0
  0
LINE
  8
0
 62
     0
 10
126.158
 20
78.8705
 30
0.0
 11
126.158
 21
64.8712
 31
0.0
  0
LINE
  8
0
 62
     0
 10
126.158
 20
64.8712
 30
0.0
 11
112.157
 21
64.8712
 31
0.0
  0
LINE
  8
0
 62
     0
 10
112.157
 20
64.8712
 30
0.0
 11
112.157
 21
78.8705
 31
0.0
  0
LINE
  8
0
 62
     0
 10
93.1072
 20
78.8705
 30
0.0
 11
107.108
 21
78.8705
 31
0.0
  0
LINE
  8
0
 62
     0
 10
107.108
 20
78.8705
 30
0.0
 11
107.108
 21
64.8712
 31
0.0
  0
LINE
  8
0
 62
     0
 10
107.108
 20
64.8712
 30
0.0
 11
93.1072
 21
64.8712
 31
0.0
  0
LINE
  8
0
 62
     0
 10
93.1072
 20
64.8712
 30
0.0
 11
93.1072
 21
78.8705
 31
0.0
  0
LINE
  8
0
 62
     0
 10
74.0572
 20
78.8705
 30
0.0
 11
88.0579
 21
78.8705
 31
0.0
  0
LINE
  8
0
 62
     0
 10
88.0579
 20
78.8705
 30
0.0
 11
88.0579
 21
64.8712
 31
0.0
  0
LINE
  8
0
 62
     0
 10
88.0579
 20
64.8712
 30
0.0
 11
74.0572
 21
64.8712
 31
0.0
  0
LINE
  8
0
 62
     0
 10
74.0572
 20
64.8712
 30
0.0
 11
74.0572
 21
78.8705
 31
0.0
  0
LINE
  8
0
 62
     0
 10
55.0072
 20
78.8705
 30
0.0
 11
69.0079
 21
78.8705
 31
0.0
  0
LINE
  8
0
 62
     0
 10
69.0079
 20
78.8705
 30
0.0
 11
69.0079
 21
64.8712
 31
0.0
  0
LINE
  8
0
 62
     0
 10
69.0079
 20
64.8712
 30
0.0
 11
55.0072
 21
64.8712
 31
0.0
  0
LINE
  8
0
 62
     0
 10
55.0072
 20
64.8712
 30
0.0
 11
55.0072
 21
78.8705
 31
0.0
  0
LINE
  8
0
 62
     0
 10
31.196
 20
78.8705
 30
0.0
 11
45.1954
 21
78.8705
 31
0.0
  0
LINE
  8
0
 62
     0
 10
45.1954
 20
78.8705
 30
0.0
 11
45.1954
 21
64.8712
 31
0.0
  0
LINE
  8
0
 62
     0
 10
45.1954
 20
64.8712
 30
0.0
 11
31.196
 21
64.8712
 31
0.0
  0
LINE
  8
0
 62
     0
 10
31.196
 20
64.8712
 30
0.0
 11
31.196
 21
78.8705
 31
0.0
  0
LINE
  8
0
 62
     0
 10
2.62103
 20
78.8705
 30
0.0
 11
16.6205
 21
78.8705
 31
0.0
  0
LINE
  8
0
 62
     0
 10
16.6205
 20
78.8705
 30
0.0
 11
16.6205
 21
64.8712
 31
0.0
  0
LINE
  8
0
 62
     0
 10
16.6205
 20
64.8712
 30
0.0
 11
2.62103
 21
64.8712
 31
0.0
  0
LINE
  8
0
 62
     0
 10
2.62103
 20
64.8712
 30
0.0
 11
2.62103
 21
78.8705
 31
0.0
  0
LINE
  8
0
 62
     0
 10
283.607
 20
97.9205
 30
0.0
 11
283.607
 21
93.2215
 31
0.0
  0
LINE
  8
0
 62
     0
 10
283.607
 20
93.2215
 30
0.0
 11
282.083
 21
93.2215
 31
0.0
  0
LINE
  8
0
 62
     0
 10
282.083
 20
93.2215
 30
0.0
 11
282.083
 21
96.4516
 31
0.0
  0
LINE
  8
0
 62
     0
 10
282.083
 20
96.4516
 30
0.0
 11
275.332
 21
96.4516
 31
0.0
  0
LINE
  8
0
 62
     0
 10
275.332
 20
96.4516
 30
0.0
 11
275.332
 21
93.2215
 31
0.0
  0
LINE
  8
0
 62
     0
 10
275.332
 20
93.2215
 30
0.0
 11
274.508
 21
93.2215
 31
0.0
  0
LINE
  8
0
 62
     0
 10
274.508
 20
93.2215
 30
0.0
 11
274.508
 21
90.4215
 31
0.0
  0
LINE
  8
0
 62
     0
 10
274.508
 20
90.4215
 30
0.0
 11
275.332
 21
90.4215
 31
0.0
  0
LINE
  8
0
 62
     0
 10
275.332
 20
90.4215
 30
0.0
 11
275.332
 21
84.1513
 31
0.0
  0
LINE
  8
0
 62
     0
 10
275.332
 20
84.1513
 30
0.0
 11
277.057
 21
84.1513
 31
0.0
  0
LINE
  8
0
 62
     0
 10
277.057
 20
84.1513
 30
0.0
 11
277.057
 21
82.9511
 31
0.0
  0
LINE
  8
0
 62
     0
 10
277.057
 20
82.9511
 30
0.0
 11
280.358
 21
82.9511
 31
0.0
  0
LINE
  8
0
 62
     0
 10
280.358
 20
82.9511
 30
0.0
 11
280.358
 21
84.1513
 31
0.0
  0
LINE
  8
0
 62
     0
 10
280.358
 20
84.1513
 30
0.0
 11
282.083
 21
84.1513
 31
0.0
  0
LINE
  8
0
 62
     0
 10
282.083
 20
84.1513
 30
0.0
 11
282.083
 21
88.6217
 31
0.0
  0
LINE
  8
0
 62
     0
 10
282.083
 20
88.6217
 30
0.0
 11
283.607
 21
88.6217
 31
0.0
  0
LINE
  8
0
 62
     0
 10
283.607
 20
88.6217
 30
0.0
 11
283.607
 21
83.9212
 31
0.0
  0
LINE
  8
0
 62
     0
 10
283.607
 20
83.9212
 30
0.0
 11
297.608
 21
83.9212
 31
0.0
  0
LINE
  8
0
 62
     0
 10
297.608
 20
83.9212
 30
0.0
 11
297.608
 21
88.6217
 31
0.0
  0
LINE
  8
0
 62
     0
 10
297.608
 20
88.6217
 30
0.0
 11
299.132
 21
88.6217
 31
0.0
  0
LINE
  8
0
 62
     0
 10
299.132
 20
88.6217
 30
0.0
 11
299.132
 21
84.1513
 31
0.0
  0
LINE
  8
0
 62
     0
 10
299.132
 20
84.1513
 30
0.0
 11
300.857
 21
84.1513
 31
0.0
  0
LINE
  8
0
 62
     0
 10
300.857
 20
84.1513
 30
0.0
 11
300.857
 21
82.9511
 31
0.0
  0
LINE
  8
0
 62
     0
 10
300.857
 20
82.9511
 30
0.0
 11
304.158
 21
82.9511
 31
0.0
  0
LINE
  8
0
 62
     0
 10
304.158
 20
82.9511
 30
0.0
 11
304.158
 21
84.1513
 31
0.0
  0
LINE
  8
0
 62
     0
 10
304.158
 20
84.1513
 30
0.0
 11
305.883
 21
84.1513
 31
0.0
  0
LINE
  8
0
 62
     0
 10
305.883
 20
84.1513
 30
0.0
 11
305.883
 21
90.4215
 31
0.0
  0
LINE
  8
0
 62
     0
 10
305.883
 20
90.4215
 30
0.0
 11
306.707
 21
90.4215
 31
0.0
  0
LINE
  8
0
 62
     0
 10
306.707
 20
90.4215
 30
0.0
 11
306.707
 21
93.2215
 31
0.0
  0
LINE
  8
0
 62
     0
 10
306.707
 20
93.2215
 30
0.0
 11
305.883
 21
93.2215
 31
0.0
  0
LINE
  8
0
 62
     0
 10
305.883
 20
93.2215
 30
0.0
 11
305.883
 21
96.4516
 31
0.0
  0
LINE
  8
0
 62
     0
 10
305.883
 20
96.4516
 30
0.0
 11
299.132
 21
96.4516
 31
0.0
  0
LINE
  8
0
 62
     0
 10
299.132
 20
96.4516
 30
0.0
 11
299.132
 21
93.2215
 31
0.0
  0
LINE
  8
0
 62
     0
 10
299.132
 20
93.2215
 30
0.0
 11
297.608
 21
93.2215
 31
0.0
  0
LINE
  8
0
 62
     0
 10
297.608
 20
93.2215
 30
0.0
 11
297.608
 21
97.9205
 31
0.0
  0
LINE
  8
0
 62
     0
 10
297.608
 20
97.9205
 30
0.0
 11
283.607
 21
97.9205
 31
0.0
  0
LINE
  8
0
 62
     0
 10
335.996
 20
97.9205
 30
0.0
 11
349.995
 21
97.9205
 31
0.0
  0
LINE
  8
0
 62
     0
 10
349.995
 20
97.9205
 30
0.0
 11
349.995
 21
83.9212
 31
0.0
  0
LINE
  8
0
 62
     0
 10
349.995
 20
83.9212
 30
0.0
 11
335.996
 21
83.9212
 31
0.0
  0
LINE
  8
0
 62
     0
 10
335.996
 20
83.9212
 30
0.0
 11
335.996
 21
97.9205
 31
0.0
  0
LINE
  8
0
 62
     0
 10
255.032
 20
97.9205
 30
0.0
 11
269.033
 21
97.9205
 31
0.0
  0
LINE
  8
0
 62
     0
 10
269.033
 20
97.9205
 30
0.0
 11
269.033
 21
83.9212
 31
0.0
  0
LINE
  8
0
 62
     0
 10
269.033
 20
83.9212
 30
0.0
 11
255.032
 21
83.9212
 31
0.0
  0
LINE
  8
0
 62
     0
 10
255.032
 20
83.9212
 30
0.0
 11
255.032
 21
97.9205
 31
0.0
  0
LINE
  8
0
 62
     0
 10
235.982
 20
97.9205
 30
0.0
 11
249.983
 21
97.9205
 31
0.0
  0
LINE
  8
0
 62
     0
 10
249.983
 20
97.9205
 30
0.0
 11
249.983
 21
83.9212
 31
0.0
  0
LINE
  8
0
 62
     0
 10
249.983
 20
83.9212
 30
0.0
 11
235.982
 21
83.9212
 31
0.0
  0
LINE
  8
0
 62
     0
 10
235.982
 20
83.9212
 30
0.0
 11
235.982
 21
97.9205
 31
0.0
  0
LINE
  8
0
 62
     0
 10
216.932
 20
97.9205
 30
0.0
 11
230.933
 21
97.9205
 31
0.0
  0
LINE
  8
0
 62
     0
 10
230.933
 20
97.9205
 30
0.0
 11
230.933
 21
83.9212
 31
0.0
  0
LINE
  8
0
 62
     0
 10
230.933
 20
83.9212
 30
0.0
 11
216.932
 21
83.9212
 31
0.0
  0
LINE
  8
0
 62
     0
 10
216.932
 20
83.9212
 30
0.0
 11
216.932
 21
97.9205
 31
0.0
  0
LINE
  8
0
 62
     0
 10
197.882
 20
97.9205
 30
0.0
 11
211.883
 21
97.9205
 31
0.0
  0
LINE
  8
0
 62
     0
 10
211.883
 20
97.9205
 30
0.0
 11
211.883
 21
83.9212
 31
0.0
  0
LINE
  8
0
 62
     0
 10
211.883
 20
83.9212
 30
0.0
 11
197.882
 21
83.9212
 31
0.0
  0
LINE
  8
0
 62
     0
 10
197.882
 20
83.9212
 30
0.0
 11
197.882
 21
97.9205
 31
0.0
  0
LINE
  8
0
 62
     0
 10
178.832
 20
97.9205
 30
0.0
 11
192.833
 21
97.9205
 31
0.0
  0
LINE
  8
0
 62
     0
 10
192.833
 20
97.9205
 30
0.0
 11
192.833
 21
83.9212
 31
0.0
  0
LINE
  8
0
 62
     0
 10
192.833
 20
83.9212
 30
0.0
 11
178.832
 21
83.9212
 31
0.0
  0
LINE
  8
0
 62
     0
 10
178.832
 20
83.9212
 30
0.0
 11
178.832
 21
97.9205
 31
0.0
  0
LINE
  8
0
 62
     0
 10
159.782
 20
97.9205
 30
0.0
 11
173.783
 21
97.9205
 31
0.0
  0
LINE
  8
0
 62
     0
 10
173.783
 20
97.9205
 30
0.0
 11
173.783
 21
83.9212
 31
0.0
  0
LINE
  8
0
 62
     0
 10
173.783
 20
83.9212
 30
0.0
 11
159.782
 21
83.9212
 31
0.0
  0
LINE
  8
0
 62
     0
 10
159.782
 20
83.9212
 30
0.0
 11
159.782
 21
97.9205
 31
0.0
  0
LINE
  8
0
 62
     0
 10
140.732
 20
97.9205
 30
0.0
 11
154.733
 21
97.9205
 31
0.0
  0
LINE
  8
0
 62
     0
 10
154.733
 20
97.9205
 30
0.0
 11
154.733
 21
83.9212
 31
0.0
  0
LINE
  8
0
 62
     0
 10
154.733
 20
83.9212
 30
0.0
 11
140.732
 21
83.9212
 31
0.0
  0
LINE
  8
0
 62
     0
 10
140.732
 20
83.9212
 30
0.0
 11
140.732
 21
97.9205
 31
0.0
  0
LINE
  8
0
 62
     0
 10
121.682
 20
97.9205
 30
0.0
 11
135.683
 21
97.9205
 31
0.0
  0
LINE
  8
0
 62
     0
 10
135.683
 20
97.9205
 30
0.0
 11
135.683
 21
83.9212
 31
0.0
  0
LINE
  8
0
 62
     0
 10
135.683
 20
83.9212
 30
0.0
 11
121.682
 21
83.9212
 31
0.0
  0
LINE
  8
0
 62
     0
 10
121.682
 20
83.9212
 30
0.0
 11
121.682
 21
97.9205
 31
0.0
  0
LINE
  8
0
 62
     0
 10
102.632
 20
97.9205
 30
0.0
 11
116.633
 21
97.9205
 31
0.0
  0
LINE
  8
0
 62
     0
 10
116.633
 20
97.9205
 30
0.0
 11
116.633
 21
83.9212
 31
0.0
  0
LINE
  8
0
 62
     0
 10
116.633
 20
83.9212
 30
0.0
 11
102.632
 21
83.9212
 31
0.0
  0
LINE
  8
0
 62
     0
 10
102.632
 20
83.9212
 30
0.0
 11
102.632
 21
97.9205
 31
0.0
  0
LINE
  8
0
 62
     0
 10
83.5822
 20
97.9205
 30
0.0
 11
97.5829
 21
97.9205
 31
0.0
  0
LINE
  8
0
 62
     0
 10
97.5829
 20
97.9205
 30
0.0
 11
97.5829
 21
83.9212
 31
0.0
  0
LINE
  8
0
 62
     0
 10
97.5829
 20
83.9212
 30
0.0
 11
83.5822
 21
83.9212
 31
0.0
  0
LINE
  8
0
 62
     0
 10
83.5822
 20
83.9212
 30
0.0
 11
83.5822
 21
97.9205
 31
0.0
  0
LINE
  8
0
 62
     0
 10
64.5322
 20
97.9205
 30
0.0
 11
78.5329
 21
97.9205
 31
0.0
  0
LINE
  8
0
 62
     0
 10
78.5329
 20
97.9205
 30
0.0
 11
78.5329
 21
83.9212
 31
0.0
  0
LINE
  8
0
 62
     0
 10
78.5329
 20
83.9212
 30
0.0
 11
64.5322
 21
83.9212
 31
0.0
  0
LINE
  8
0
 62
     0
 10
64.5322
 20
83.9212
 30
0.0
 11
64.5322
 21
97.9205
 31
0.0
  0
LINE
  8
0
 62
     0
 10
45.4822
 20
97.9205
 30
0.0
 11
59.4829
 21
97.9205
 31
0.0
  0
LINE
  8
0
 62
     0
 10
59.4829
 20
97.9205
 30
0.0
 11
59.4829
 21
83.9212
 31
0.0
  0
LINE
  8
0
 62
     0
 10
59.4829
 20
83.9212
 30
0.0
 11
45.4822
 21
83.9212
 31
0.0
  0
LINE
  8
0
 62
     0
 10
45.4822
 20
83.9212
 30
0.0
 11
45.4822
 21
97.9205
 31
0.0
  0
LINE
  8
0
 62
     0
 10
26.4322
 20
97.9205
 30
0.0
 11
40.4329
 21
97.9205
 31
0.0
  0
LINE
  8
0
 62
     0
 10
40.4329
 20
97.9205
 30
0.0
 11
40.4329
 21
83.9212
 31
0.0
  0
LINE
  8
0
 62
     0
 10
40.4329
 20
83.9212
 30
0.0
 11
26.4322
 21
83.9212
 31
0.0
  0
LINE
  8
0
 62
     0
 10
26.4322
 20
83.9212
 30
0.0
 11
26.4322
 21
97.9205
 31
0.0
  0
LINE
  8
0
 62
     0
 10
2.62103
 20
97.9205
 30
0.0
 11
16.6205
 21
97.9205
 31
0.0
  0
LINE
  8
0
 62
     0
 10
16.6205
 20
97.9205
 30
0.0
 11
16.6205
 21
83.9212
 31
0.0
  0
LINE
  8
0
 62
     0
 10
16.6205
 20
83.9212
 30
0.0
 11
2.62103
 21
83.9212
 31
0.0
  0
LINE
  8
0
 62
     0
 10
2.62103
 20
83.9212
 30
0.0
 11
2.62103
 21
97.9205
 31
0.0
  0
LINE
  8
0
 62
     0
 10
293.132
 20
121.734
 30
0.0
 11
307.133
 21
121.734
 31
0.0
  0
LINE
  8
0
 62
     0
 10
307.133
 20
121.734
 30
0.0
 11
307.133
 21
107.734
 31
0.0
  0
LINE
  8
0
 62
     0
 10
307.133
 20
107.734
 30
0.0
 11
293.132
 21
107.734
 31
0.0
  0
LINE
  8
0
 62
     0
 10
293.132
 20
107.734
 30
0.0
 11
293.132
 21
121.734
 31
0.0
  0
LINE
  8
0
 62
     0
 10
274.082
 20
121.734
 30
0.0
 11
288.083
 21
121.734
 31
0.0
  0
LINE
  8
0
 62
     0
 10
288.083
 20
121.734
 30
0.0
 11
288.083
 21
107.734
 31
0.0
  0
LINE
  8
0
 62
     0
 10
288.083
 20
107.734
 30
0.0
 11
274.082
 21
107.734
 31
0.0
  0
LINE
  8
0
 62
     0
 10
274.082
 20
107.734
 30
0.0
 11
274.082
 21
121.734
 31
0.0
  0
LINE
  8
0
 62
     0
 10
255.032
 20
121.734
 30
0.0
 11
269.033
 21
121.734
 31
0.0
  0
LINE
  8
0
 62
     0
 10
269.033
 20
121.734
 30
0.0
 11
269.033
 21
107.734
 31
0.0
  0
LINE
  8
0
 62
     0
 10
269.033
 20
107.734
 30
0.0
 11
255.032
 21
107.734
 31
0.0
  0
LINE
  8
0
 62
     0
 10
255.032
 20
107.734
 30
0.0
 11
255.032
 21
121.734
 31
0.0
  0
LINE
  8
0
 62
     0
 10
235.982
 20
121.734
 30
0.0
 11
249.983
 21
121.734
 31
0.0
  0
LINE
  8
0
 62
     0
 10
249.983
 20
121.734
 30
0.0
 11
249.983
 21
107.734
 31
0.0
  0
LINE
  8
0
 62
     0
 10
249.983
 20
107.734
 30
0.0
 11
235.982
 21
107.734
 31
0.0
  0
LINE
  8
0
 62
     0
 10
235.982
 20
107.734
 30
0.0
 11
235.982
 21
121.734
 31
0.0
  0
LINE
  8
0
 62
     0
 10
207.407
 20
121.734
 30
0.0
 11
221.408
 21
121.734
 31
0.0
  0
LINE
  8
0
 62
     0
 10
221.408
 20
121.734
 30
0.0
 11
221.408
 21
107.734
 31
0.0
  0
LINE
  8
0
 62
     0
 10
221.408
 20
107.734
 30
0.0
 11
207.407
 21
107.734
 31
0.0
  0
LINE
  8
0
 62
     0
 10
207.407
 20
107.734
 30
0.0
 11
207.407
 21
121.734
 31
0.0
  0
LINE
  8
0
 62
     0
 10
188.357
 20
121.734
 30
0.0
 11
202.358
 21
121.734
 31
0.0
  0
LINE
  8
0
 62
     0
 10
202.358
 20
121.734
 30
0.0
 11
202.358
 21
107.734
 31
0.0
  0
LINE
  8
0
 62
     0
 10
202.358
 20
107.734
 30
0.0
 11
188.357
 21
107.734
 31
0.0
  0
LINE
  8
0
 62
     0
 10
188.357
 20
107.734
 30
0.0
 11
188.357
 21
121.734
 31
0.0
  0
LINE
  8
0
 62
     0
 10
169.307
 20
121.734
 30
0.0
 11
183.308
 21
121.734
 31
0.0
  0
LINE
  8
0
 62
     0
 10
183.308
 20
121.734
 30
0.0
 11
183.308
 21
107.734
 31
0.0
  0
LINE
  8
0
 62
     0
 10
183.308
 20
107.734
 30
0.0
 11
169.307
 21
107.734
 31
0.0
  0
LINE
  8
0
 62
     0
 10
169.307
 20
107.734
 30
0.0
 11
169.307
 21
121.734
 31
0.0
  0
LINE
  8
0
 62
     0
 10
150.257
 20
121.734
 30
0.0
 11
164.258
 21
121.734
 31
0.0
  0
LINE
  8
0
 62
     0
 10
164.258
 20
121.734
 30
0.0
 11
164.258
 21
107.734
 31
0.0
  0
LINE
  8
0
 62
     0
 10
164.258
 20
107.734
 30
0.0
 11
150.257
 21
107.734
 31
0.0
  0
LINE
  8
0
 62
     0
 10
150.257
 20
107.734
 30
0.0
 11
150.257
 21
121.734
 31
0.0
  0
LINE
  8
0
 62
     0
 10
121.682
 20
121.734
 30
0.0
 11
135.683
 21
121.734
 31
0.0
  0
LINE
  8
0
 62
     0
 10
135.683
 20
121.734
 30
0.0
 11
135.683
 21
107.734
 31
0.0
  0
LINE
  8
0
 62
     0
 10
135.683
 20
107.734
 30
0.0
 11
121.682
 21
107.734
 31
0.0
  0
LINE
  8
0
 62
     0
 10
121.682
 20
107.734
 30
0.0
 11
121.682
 21
121.734
 31
0.0
  0
LINE
  8
0
 62
     0
 10
102.632
 20
121.734
 30
0.0
 11
116.633
 21
121.734
 31
0.0
  0
LINE
  8
0
 62
     0
 10
116.633
 20
121.734
 30
0.0
 11
116.633
 21
107.734
 31
0.0
  0
LINE
  8
0
 62
     0
 10
116.633
 20
107.734
 30
0.0
 11
102.632
 21
107.734
 31
0.0
  0
LINE
  8
0
 62
     0
 10
102.632
 20
107.734
 30
0.0
 11
102.632
 21
121.734
 31
0.0
  0
LINE
  8
0
 62
     0
 10
83.5822
 20
121.734
 30
0.0
 11
97.5829
 21
121.734
 31
0.0
  0
LINE
  8
0
 62
     0
 10
97.5829
 20
121.734
 30
0.0
 11
97.5829
 21
107.734
 31
0.0
  0
LINE
  8
0
 62
     0
 10
97.5829
 20
107.734
 30
0.0
 11
83.5822
 21
107.734
 31
0.0
  0
LINE
  8
0
 62
     0
 10
83.5822
 20
107.734
 30
0.0
 11
83.5822
 21
121.734
 31
0.0
  0
LINE
  8
0
 62
     0
 10
64.5322
 20
121.734
 30
0.0
 11
78.5329
 21
121.734
 31
0.0
  0
LINE
  8
0
 62
     0
 10
78.5329
 20
121.734
 30
0.0
 11
78.5329
 21
107.734
 31
0.0
  0
LINE
  8
0
 62
     0
 10
78.5329
 20
107.734
 30
0.0
 11
64.5322
 21
107.734
 31
0.0
  0
LINE
  8
0
 62
     0
 10
64.5322
 20
107.734
 30
0.0
 11
64.5322
 21
121.734
 31
0.0
  0
LINE
  8
0
 62
     0
 10
26.4322
 20
121.734
 30
0.0
 11
40.4329
 21
121.734
 31
0.0
  0
LINE
  8
0
 62
     0
 10
40.4329
 20
121.734
 30
0.0
 11
40.4329
 21
107.734
 31
0.0
  0
LINE
  8
0
 62
     0
 10
40.4329
 20
107.734
 30
0.0
 11
26.4322
 21
107.734
 31
0.0
  0
LINE
  8
0
 62
     0
 10
26.4322
 20
107.734
 30
0.0
 11
26.4322
 21
121.734
 31
0.0
  0
ENDSEC
  0
EOF
